<svg width="100" height="100" viewBox="0 0 56 56" fill="none" xmlns="http://www.w3.org/2000/svg">
<g id="Frame 102">
<rect id="Rectangle 39342" width="56" height="56" rx="12" fill="white"/>
<g id="Group 48095380">
<g id="Mask group">
<mask id="mask0_51_413" style="mask-type:alpha" maskUnits="userSpaceOnUse" x="17" y="13" width="24" height="33">
<rect id="Rectangle 39330" x="17" y="13.6064" width="23.0889" height="32.0266" rx="7" fill="#FFEEDD"/>
</mask>
<g mask="url(#mask0_51_413)">
<rect id="Rectangle 39332" x="17" y="13.6064" width="23.0889" height="32.0266" rx="7" fill="#FFF2E6"/>
<rect id="Rectangle 39331" x="15.8828" y="41.9092" width="24.5785" height="4.09642" fill="#FCE8C0"/>
</g>
</g>
<g id="Group">
<path id="Vector 19" d="M29.9218 13.4897H21C18.7909 13.4897 17 15.2806 17 17.4897V41.6334C17 43.8425 18.7909 45.6334 21 45.6334H35.9932C38.2023 45.6334 39.9932 43.8425 39.9932 41.6334V27.0136" stroke="#F07D0A" stroke-width="2.5" stroke-linecap="round"/>
<path id="Vector" d="M24.9693 32.2474C25.7922 32.2474 26.4504 32.1595 27.191 32.2474C28.0962 32.4231 28.8368 33.038 29.3305 33.7407C30.2356 34.9705 31.3876 35.0584 32.5396 34.1799C32.9511 33.8286 33.2802 33.565 33.8562 33.7407C34.5968 34.0921 34.9259 34.9705 34.3499 35.6733C32.5396 37.7815 29.0013 37.518 27.767 35.4976C27.0265 34.2678 26.2859 34.2678 25.2984 35.1462C24.887 35.4976 24.6401 36.0247 24.1464 36.376C23.8173 36.6396 23.3236 36.7274 22.9944 36.6396C22.6653 36.5517 22.3361 36.0247 22.2538 35.7611C22.0893 33.038 22.6653 30.6662 24.887 28.9972C25.5453 28.4701 26.2036 28.558 26.615 29.085C27.0264 29.6999 26.9442 30.3148 26.2859 30.9297C25.7922 31.3689 25.3807 31.896 24.9693 32.2474Z" fill="#F07D0A"/>
</g>
<g id="Group 48095379">
<path id="Vector 20" d="M43.852 14.6297L40.9418 11.7156C40.5485 11.3217 39.9091 11.3249 39.5197 11.7226L30.5905 20.8427C30.4564 20.9796 30.3645 21.1522 30.3257 21.3399L29.5385 25.1503C29.3864 25.8863 30.0702 26.5208 30.7929 26.314L34.4664 25.263C34.6298 25.2163 34.7787 25.1286 34.8989 25.0082L43.852 16.043C44.2419 15.6526 44.2419 15.0201 43.852 14.6297Z" fill="#FFF2E6" stroke="#F07D0A" stroke-width="2" stroke-linecap="round" stroke-linejoin="round"/>
<path id="Vector 22" d="M32.5646 24.2958L42.5035 14.3569C42.9104 13.95 43.5758 13.9696 43.958 14.3996L44.1112 14.5719C44.4652 14.9702 44.4448 15.5759 44.0649 15.9494L34.11 25.7356C33.8876 25.9542 33.5761 26.0565 33.2675 26.0124L33.1303 25.9928C32.3145 25.8763 31.9819 24.8785 32.5646 24.2958Z" fill="#FCE8C0"/>
<path id="Vector 23" d="M43.852 14.6297L40.9418 11.7156C40.5485 11.3217 39.9091 11.3249 39.5197 11.7226L30.5905 20.8427C30.4564 20.9796 30.3645 21.1522 30.3257 21.3399L29.5385 25.1503C29.3864 25.8863 30.0702 26.5208 30.7929 26.314L34.4664 25.263C34.6298 25.2163 34.7787 25.1286 34.8989 25.0082L43.852 16.043C44.2419 15.6526 44.2419 15.0201 43.852 14.6297Z" stroke="#F07D0A" stroke-width="2" stroke-linecap="round" stroke-linejoin="round"/>
<path id="Vector 21" d="M37.5029 14.3193L41.4451 18.2615" stroke="#F07D0A" stroke-width="2" stroke-linecap="round" stroke-linejoin="round"/>
</g>
</g>
</g>
</svg>
