<svg  viewBox="0 0 25 33" fill="none" xmlns="http://www.w3.org/2000/svg">
<g id="elements">
<g clip-path="url(#clip0_51_560)">
<rect x="1" y="1" width="23" height="31" rx="4" fill="#EFFFF3"/>
<path id="Vector" d="M5.27148 14.6668C4.7192 14.6668 4.27148 15.1145 4.27148 15.6668C4.27148 16.2191 4.7192 16.6668 5.27148 16.6668V14.6668ZM19.3103 8.53518C19.5556 8.04035 19.3533 7.44037 18.8585 7.1951C18.3636 6.94982 17.7636 7.15213 17.5184 7.64696L19.3103 8.53518ZM15.599 6.79773C15.0564 6.90091 14.7002 7.42438 14.8034 7.96694C14.9065 8.5095 15.43 8.8657 15.9726 8.76252L15.599 6.79773ZM17.4518 7.46331L17.265 6.48092L17.265 6.48092L17.4518 7.46331ZM19.3105 8.68127L18.34 8.92244L19.3105 8.68127ZM18.7581 10.605C18.8913 11.141 19.4338 11.4675 19.9698 11.3343C20.5058 11.2011 20.8323 10.6586 20.6991 10.1226L18.7581 10.605ZM18.7746 7.44189L19.3227 6.60547V6.60547L18.7746 7.44189ZM5.27148 16.6668C8.35442 16.6668 11.1598 16.0744 13.5604 14.7419C15.97 13.4044 17.9136 11.353 19.3103 8.53518L17.5184 7.64696C16.2865 10.1321 14.6158 11.8687 12.5897 12.9932C10.5546 14.1229 8.10283 14.6668 5.27148 14.6668V16.6668ZM15.9726 8.76252L17.6386 8.44571L17.265 6.48092L15.599 6.79773L15.9726 8.76252ZM18.34 8.92244L18.7581 10.605L20.6991 10.1226L20.281 8.44009L18.34 8.92244ZM17.6386 8.44571C17.8174 8.4117 17.9569 8.38525 18.0772 8.36557C18.1978 8.34583 18.2748 8.3371 18.3263 8.33439C18.4186 8.32953 18.3344 8.34899 18.2265 8.27831L19.3227 6.60547C18.9427 6.35642 18.5472 6.32 18.2213 6.33715C17.9284 6.35256 17.5874 6.4196 17.265 6.48092L17.6386 8.44571ZM20.281 8.44009C20.1996 8.11274 20.1171 7.77251 20.0099 7.49861C19.8921 7.19785 19.6996 6.85246 19.3227 6.60547L18.2265 8.27831C18.1218 8.20969 18.1094 8.13032 18.1476 8.22781C18.168 8.28004 18.1933 8.35781 18.2266 8.47927C18.2599 8.60038 18.2952 8.7421 18.34 8.92244L20.281 8.44009Z" fill="#1DCA4D"/>
<path id="Vector_2" d="M7.24316 25.3332L7.24316 21.6665" stroke="#1DCA4D" stroke-width="2" stroke-linecap="round"/>
<path id="Vector_3" d="M12.8281 25.3335L12.8281 19.3335" stroke="#1DCA4D" stroke-width="2" stroke-linecap="round"/>
<path id="Vector_4" d="M18.7432 25.3332L18.7432 16.6665" stroke="#1DCA4D" stroke-width="2" stroke-linecap="round"/>
</g>
<rect x="1" y="1" width="23" height="31" rx="4" stroke="#1DCA4D" stroke-width="2"/>
</g>
<defs>
<clipPath id="clip0_51_560">
<rect x="1" y="1" width="23" height="31" rx="4" fill="white"/>
</clipPath>
</defs>
</svg>
