<svg viewBox="0 0 25 42" fill="none" xmlns="http://www.w3.org/2000/svg">
<g id="Frame" clip-path="url(#clip0_51_508)">
<g id="Group">
<path id="Vector" d="M17.0495 37.2998H4.08062C2.22912 37.2998 0.729492 35.7573 0.729492 33.8529V13.9215C0.729492 12.0171 2.22912 10.4746 4.08062 10.4746H17.0467C18.8982 10.4746 20.3978 12.0171 20.3978 13.9215V33.8529C20.4006 35.7573 18.8982 37.2998 17.0495 37.2998Z" fill="#EBF5FF"/>
<g id="Clip path group">
<mask id="mask0_51_508" style="mask-type:luminance" maskUnits="userSpaceOnUse" x="0" y="10" width="21" height="28">
<g id="XMLID_3_">
<path id="Vector_2" d="M17.0495 37.2998H4.08062C2.22912 37.2998 0.729492 35.7573 0.729492 33.8529V13.9215C0.729492 12.0171 2.22912 10.4746 4.08062 10.4746H17.0467C18.8982 10.4746 20.3978 12.0171 20.3978 13.9215V33.8529C20.4006 35.7573 18.8982 37.2998 17.0495 37.2998Z" fill="white"/>
</g>
</mask>
<g mask="url(#mask0_51_508)">
<path id="Vector_3" opacity="0.51" d="M30.6729 9.26562H17.5479V37.4044H30.6729V9.26562Z" fill="#92BFEF"/>
<path id="Vector_4" opacity="0.51" d="M18.5578 34.3159H0.384766V40.1496H18.5578V34.3159Z" fill="#92BFEF"/>
</g>
</g>
</g>
<g id="Group_2">
<path id="Vector_5" d="M7.23294 10.3575C7.20299 9.75208 6.69447 9.3042 6.12866 9.3042H3.52745C3.4331 9.3042 3.29474 9.32476 3.16667 9.35345C3.04526 9.38066 2.91358 9.41944 2.8291 9.46546C1.15035 10.1203 0.259766 11.7629 0.259766 13.6584V33.9686C0.259766 36.4386 2.16133 38.4696 4.49892 38.4696H10.1526C10.741 38.4696 11.2066 37.963 11.2066 37.3565C11.2066 36.75 10.741 36.2434 10.1526 36.2434H4.49892C3.33034 36.2434 2.36777 35.2283 2.36777 33.9686V13.6584C2.36777 12.9524 2.68092 12.2986 3.18076 11.8764L3.18076 11.8764L3.18165 11.8757C3.44894 11.6457 3.79086 11.5305 4.14059 11.5305H6.18175C6.78859 11.5305 7.2653 10.9918 7.23294 10.3575ZM7.23294 10.3575L7.1081 10.3637L7.23293 10.3573C7.23294 10.3574 7.23294 10.3574 7.23294 10.3575Z" fill="#1B85E6" stroke="#1B85E6" stroke-width="0.25"/>
<path id="Vector_6" d="M14.4089 10.3556C14.3734 10.999 14.8935 11.5276 15.5319 11.5276H17.7314C18.1128 11.5276 18.4848 11.6442 18.7746 11.8753L18.7746 11.8753L18.7755 11.876C19.3158 12.2988 19.6514 12.9511 19.6514 13.6523V27.2549C19.6514 27.8698 20.1581 28.3667 20.7774 28.3667C21.3967 28.3667 21.9035 27.8698 21.9035 27.2549V13.6523C21.9035 11.7535 20.9401 10.1151 19.1372 9.46382C19.0481 9.41865 18.9077 9.38015 18.7768 9.35297C18.6393 9.32442 18.4917 9.3042 18.3921 9.3042H15.5891C14.9931 9.3042 14.4417 9.74321 14.4089 10.3556ZM14.4089 10.3556C14.4089 10.3556 14.4089 10.3556 14.4089 10.3557L14.5337 10.3624L14.4089 10.3555C14.4089 10.3555 14.4089 10.3555 14.4089 10.3556Z" fill="#1B85E6" stroke="#1B85E6" stroke-width="0.25"/>
</g>
<g id="Group 48095375">
<path id="Vector (Stroke)" d="M18.3181 34.4567C18.0036 34.1479 17.4947 34.1479 17.1802 34.4567C16.8644 34.7667 16.8644 35.2704 17.1802 35.5804L22.5972 40.8993C22.9116 41.2081 23.4206 41.2081 23.7351 40.8993C24.0508 40.5893 24.0508 40.0857 23.7351 39.7756L18.3181 34.4567Z" fill="#1B85E6" stroke="#1B85E6" stroke-width="0.25" stroke-miterlimit="10" stroke-linecap="round"/>
<path id="Vector_7" d="M17.6961 39.3394C19.9237 39.3394 21.7124 37.3825 21.7124 34.9905C21.7124 32.5985 19.9237 30.6416 17.6961 30.6416C15.4684 30.6416 13.6797 32.5985 13.6797 34.9905C13.6797 37.3825 15.4684 39.3394 17.6961 39.3394Z" fill="#EBF5FF" stroke="#1B85E6" stroke-width="0.25" stroke-miterlimit="10"/>
<path id="Vector (Stroke)_2" d="M14.1086 35.0209C14.1086 33.1494 15.6919 31.6235 17.6561 31.6235C19.6202 31.6235 21.2036 33.1494 21.2036 35.0209C21.2036 36.8924 19.6202 38.4183 17.6561 38.4183C15.6919 38.4183 14.1086 36.8924 14.1086 35.0209ZM17.6561 29.958C14.7487 29.958 12.3828 32.2199 12.3828 35.0209C12.3828 37.8219 14.7487 40.0838 17.6561 40.0838C20.5634 40.0838 22.9293 37.8219 22.9293 35.0209C22.9293 32.2199 20.5634 29.958 17.6561 29.958Z" fill="#1B85E6" stroke="#1B85E6" stroke-width="0.25" stroke-miterlimit="10"/>
</g>
<g id="Group_3">
<path id="Vector_8" d="M11.1744 4.63086C10.624 4.63086 10.0792 4.72514 9.55646 4.90831C8.54972 5.26387 7.68957 5.94805 7.12812 6.83427C6.95111 7.1171 7.03962 7.48613 7.33002 7.65852C7.62043 7.83092 7.99934 7.74472 8.17634 7.46189C8.59674 6.79655 9.21627 6.30362 9.97408 6.03694C10.3613 5.89957 10.7651 5.83223 11.1717 5.83223C12.3914 5.83223 13.5447 6.46254 14.1753 7.47805C14.2914 7.66391 14.4933 7.76627 14.7035 7.76627C14.8114 7.76627 14.922 7.73933 15.0216 7.68007C15.312 7.50768 15.406 7.13865 15.229 6.85581C14.3772 5.48205 12.8228 4.63086 11.1744 4.63086Z" fill="#1B85E6"/>
<path id="Vector (Stroke)_3" fill-rule="evenodd" clip-rule="evenodd" d="M9.26328 4.58953C9.81591 4.38409 10.3935 4.27783 10.978 4.27783C12.7262 4.27783 14.3733 5.23419 15.2776 6.78072C15.5672 7.2725 15.4116 7.91011 14.94 8.20711C14.775 8.31121 14.5933 8.35735 14.4193 8.35735C14.0792 8.35735 13.7484 8.18069 13.5586 7.85854L13.558 7.85751C13.0168 6.93286 12.0238 6.3566 10.9753 6.3566C10.625 6.3566 10.2781 6.4181 9.94595 6.54314L9.94495 6.54351C9.29267 6.78702 8.76153 7.23516 8.39937 7.8429C8.10817 8.33545 7.48886 8.48096 7.01862 8.18482C6.54123 7.88417 6.40007 7.24382 6.68686 6.75768L6.688 6.75573L6.68801 6.75573C7.28313 5.7592 8.1944 4.99002 9.26232 4.58989L9.26328 4.58953ZM9.53769 5.37595C8.64281 5.71137 7.87702 6.35726 7.37724 7.19359C7.31948 7.29248 7.351 7.41512 7.43972 7.471C7.53557 7.53136 7.65478 7.49887 7.70901 7.40694L7.70991 7.40542L7.70991 7.40542C8.16753 6.63709 8.84431 6.06566 9.66951 5.75747C10.0923 5.5984 10.5328 5.52064 10.9753 5.52064C12.3052 5.52064 13.5613 6.24821 14.2499 7.42423C14.2867 7.4864 14.3496 7.52139 14.4193 7.52139C14.4556 7.52139 14.4895 7.51187 14.5185 7.49354L14.5189 7.49329C14.6134 7.43376 14.6413 7.30835 14.5863 7.21506L14.5854 7.21359C13.8283 5.91825 12.4442 5.1138 10.978 5.1138C10.4892 5.1138 10.0044 5.20253 9.53769 5.37595Z" fill="#1B85E6"/>
<path id="Vector_9" d="M17.1134 3.59004C16.6254 3.03218 16.0726 2.54029 15.4662 2.13239C15.4408 2.1144 15.4126 2.0964 15.3872 2.0784H15.3844C14.8767 1.74248 14.3379 1.46655 13.7823 1.2536C13.7795 1.2506 13.7738 1.2476 13.7682 1.2476C13.7428 1.2386 13.7146 1.22661 13.692 1.21761C13.661 1.20561 13.63 1.19361 13.5961 1.18162C13.5764 1.17262 13.5566 1.16662 13.5369 1.16062C13.472 1.13663 13.4043 1.11563 13.3366 1.09464C13.3084 1.08564 13.2774 1.07364 13.2492 1.06764C13.1787 1.04365 13.1082 1.02565 13.0376 1.00466C13.0179 0.99866 12.9982 0.992662 12.9784 0.989662C12.9079 0.971667 12.8374 0.953671 12.7669 0.938675C12.6964 0.920679 12.623 0.902683 12.5525 0.890686C12.4933 0.878689 12.434 0.866692 12.3776 0.854695C12.2845 0.839698 12.1915 0.821702 12.0984 0.809705C11.9122 0.779712 11.7261 0.761717 11.5399 0.74672C11.5258 0.743721 11.5089 0.743721 11.4948 0.743721C11.3086 0.728724 11.1225 0.719727 10.9335 0.719727C10.6599 0.719727 10.3863 0.734723 10.107 0.761717L10.0845 0.764716C10.0196 0.770714 9.95755 0.78871 9.90114 0.812704H9.89832C9.86447 0.824702 9.83345 0.842697 9.80524 0.860693C9.73191 0.839698 9.65575 0.8307 9.57395 0.836699C9.526 0.842697 9.47805 0.851695 9.4301 0.860693C9.24394 0.896685 9.05779 0.935675 8.87727 0.986663C8.81239 1.00166 8.75034 1.01966 8.68547 1.04065C8.64034 1.04965 8.59803 1.06464 8.5529 1.07964C8.51059 1.09164 8.46828 1.10364 8.42597 1.12163C8.34417 1.14862 8.25956 1.17862 8.17776 1.20861C8.17212 1.21161 8.16366 1.21161 8.15802 1.21461C8.1552 1.21461 8.15519 1.21461 8.15519 1.21761C7.93801 1.29859 7.72364 1.38857 7.5121 1.48754C7.50928 1.48754 7.50928 1.48754 7.50928 1.48754C7.29773 1.58952 7.08901 1.69749 6.88593 1.81447C6.78439 1.87445 6.68284 1.93444 6.58412 1.99742C6.48258 2.06041 6.38386 2.12639 6.28796 2.19538C6.22309 2.24037 6.15539 2.28535 6.09334 2.33634C6.0736 2.34834 6.05385 2.36334 6.03411 2.37833C6.02565 2.38133 6.02001 2.38733 6.01154 2.39333C5.99744 2.40233 5.98334 2.41132 5.96923 2.42332C5.87333 2.4953 5.78308 2.57029 5.69 2.64527C5.6082 2.71425 5.5264 2.78324 5.44742 2.85522C5.43896 2.86422 5.42768 2.87022 5.41922 2.87921C5.34306 2.9482 5.26691 3.02018 5.19075 3.09516C5.18793 3.09816 5.18229 3.10416 5.17665 3.10716C5.17101 3.11016 5.16537 3.11616 5.15972 3.12515C5.08639 3.19414 5.01587 3.26912 4.94536 3.3441C4.92562 3.3651 4.90587 3.38309 4.88895 3.40409C4.88331 3.41009 4.87484 3.41909 4.87202 3.42508C4.86356 3.43108 4.86074 3.44008 4.8551 3.44608C4.82689 3.47607 4.79587 3.50906 4.77048 3.53906C4.75638 3.55405 4.74228 3.57205 4.72535 3.58705C4.70561 3.60804 4.68868 3.62904 4.67176 3.65003C4.6633 3.65903 4.65202 3.67402 4.64638 3.68302C4.57868 3.761 4.51381 3.83899 4.45175 3.91997C4.44047 3.93196 4.42919 3.94696 4.41791 3.96196C4.38124 4.00994 4.34457 4.05793 4.31072 4.10592C4.09918 4.41185 4.14995 4.84675 4.43201 5.08969C4.55612 5.19766 4.70561 5.24865 4.8551 5.24865C5.05254 5.24865 5.24998 5.15867 5.38255 4.98171C5.41076 4.94272 5.44178 4.90373 5.47563 4.86474C5.53768 4.78376 5.60256 4.70578 5.67025 4.6278C5.67307 4.6188 5.67871 4.6128 5.68435 4.6068C5.69 4.6008 5.69564 4.59481 5.69846 4.58881C5.72948 4.55282 5.76333 4.51682 5.79436 4.48383C5.81974 4.45684 5.84231 4.42984 5.87051 4.40285C5.87051 4.39985 5.87051 4.39985 5.87333 4.39985C5.87615 4.39385 5.8818 4.38486 5.88744 4.38186C5.91564 4.35186 5.94385 4.32187 5.97206 4.29488C6.0059 4.25889 6.04257 4.22289 6.07924 4.1869C6.08206 4.1839 6.08488 4.1779 6.0877 4.1779C6.09616 4.16891 6.10462 4.16291 6.11309 4.15391C6.16668 4.09992 6.22027 4.04894 6.27668 4.00095C6.28514 3.99195 6.29642 3.97995 6.30489 3.97095C6.37258 3.90797 6.44309 3.84798 6.51361 3.791C6.51643 3.788 6.51925 3.785 6.52207 3.782C6.53335 3.773 6.54464 3.764 6.55592 3.75201C6.59541 3.71901 6.63772 3.68902 6.6772 3.65603C6.79285 3.56005 6.91413 3.47307 7.03542 3.39209C7.11158 3.3351 7.19337 3.28412 7.27235 3.23313C7.4303 3.13115 7.59108 3.04117 7.75467 2.9512C7.84211 2.90621 7.92955 2.86122 8.01699 2.81623C8.10725 2.77424 8.1975 2.73525 8.28776 2.69626C8.29623 2.69326 8.30751 2.68726 8.31597 2.68426H8.31879C8.347 2.67226 8.37238 2.66027 8.40059 2.65127C8.41751 2.64227 8.43725 2.63627 8.457 2.62727C8.46546 2.62427 8.4711 2.62127 8.47956 2.61828C8.49367 2.61228 8.50777 2.60628 8.51905 2.60328C8.53315 2.59728 8.54726 2.59128 8.56136 2.58828C8.56982 2.58528 8.57546 2.58228 8.58393 2.58228C8.59239 2.57629 8.60367 2.57329 8.61213 2.57029C8.67418 2.54629 8.73906 2.5253 8.80393 2.5043C8.83778 2.49231 8.87445 2.48031 8.90829 2.46831C8.98727 2.44432 9.06907 2.42032 9.15087 2.39933C9.2101 2.38433 9.26651 2.36933 9.32574 2.35734C9.35959 2.34834 9.39061 2.33934 9.42446 2.33334C9.46959 2.32135 9.51754 2.31235 9.56267 2.30335C9.61626 2.29135 9.66985 2.27936 9.72345 2.27036C9.80806 2.25536 9.88704 2.22237 9.95473 2.18038C9.98294 2.18938 10.014 2.19538 10.0422 2.19838C10.0958 2.20737 10.1494 2.20737 10.2029 2.20137L10.2312 2.19838C10.6458 2.15639 11.0632 2.15339 11.475 2.18938C11.5455 2.19238 11.6161 2.20137 11.6866 2.21037C11.7571 2.21637 11.8276 2.22537 11.8981 2.23737C11.9009 2.23737 11.9066 2.23737 11.9066 2.24037C11.9658 2.24936 12.0279 2.25836 12.0871 2.27036C12.1999 2.28835 12.3128 2.31235 12.4228 2.33934C12.4312 2.33934 12.4369 2.34234 12.4453 2.34534C12.5497 2.36933 12.6512 2.39933 12.7528 2.42632C13.4184 2.61828 14.0615 2.91221 14.6538 3.30211C14.6679 3.31111 14.6849 3.32311 14.699 3.33211C15.218 3.68002 15.689 4.09692 16.1065 4.57381C16.239 4.72677 16.4195 4.80476 16.6001 4.80476C16.7665 4.80476 16.9301 4.74177 17.0626 4.6128C17.3532 4.33687 17.3673 3.88098 17.1134 3.59004Z" fill="#1B85E6" stroke="#1B85E6" stroke-miterlimit="10"/>
</g>
<path id="Vector_10" d="M11.0814 11.8681C11.8437 11.8681 12.4616 11.2442 12.4616 10.4746C12.4616 9.70495 11.8437 9.08105 11.0814 9.08105C10.3191 9.08105 9.70117 9.70495 9.70117 10.4746C9.70117 11.2442 10.3191 11.8681 11.0814 11.8681Z" fill="#1B85E6"/>
</g>
<defs>
<clipPath id="clip0_51_508">
<rect width="25" height="42" fill="white"/>
</clipPath>
</defs>
</svg>
