<svg  viewBox="0 0 56 56" fill="none" xmlns="http://www.w3.org/2000/svg">
<g id="Frame 100">
<rect id="Rectangle 39342" width="56" height="56" rx="12" fill="white"/>
<g id="elements">
<path id="Vector 15" d="M17.2969 19.7211L24.3469 12.1982L32.3164 12.019L39.6729 19.7211L32.6229 20.0794L38.6001 43.1856H18.3697L24.3469 19.7211H17.2969Z" fill="#EFFFF3"/>
<path id="Vector 17" d="M30.083 19.5714V12.019H32.2267L40.4719 19.5714L32.2267 19.9227L38.9878 43.9848H36.3493L30.083 19.5714Z" fill="#C8FBD7"/>
<path id="Vector" d="M32.3479 12.4336H23.8799V20.3251H32.3479V12.4336Z" stroke="#1DCA4D" stroke-width="2" stroke-linecap="round" stroke-linejoin="round"/>
<path id="Vector_2" d="M38.6985 44H17.5283L23.8794 20.3254H32.3474L38.6985 44Z" stroke="#1DCA4D" stroke-width="2" stroke-linecap="round" stroke-linejoin="round"/>
<path id="Vector_3" d="M14 44H42.2269" stroke="#1DCA4D" stroke-width="2" stroke-linecap="round" stroke-linejoin="round"/>
<path id="Vector_4" d="M15.4111 20.3251H40.8153M15.4111 20.3251V23.4818M15.4111 20.3251L23.8792 12.4336M40.8153 20.3251V23.4818M40.8153 20.3251L32.3473 12.4336" stroke="#1DCA4D" stroke-width="2" stroke-linecap="round" stroke-linejoin="round"/>
<path id="Vector_5" d="M33.0531 24.271L21.0566 32.1625L37.2871 40.8432" stroke="#1DCA4D" stroke-width="2" stroke-linecap="round" stroke-linejoin="round"/>
<path id="Vector_6" d="M23.1735 24.271L35.1699 32.1625L18.9395 40.8432" stroke="#1DCA4D" stroke-width="2" stroke-linecap="round" stroke-linejoin="round"/>
</g>
</g>
</svg>
