<svg width="56" height="56" viewBox="0 0 56 56" fill="none" xmlns="http://www.w3.org/2000/svg">
<g id="Frame 106">
<rect id="Rectangle 39343" width="56" height="56" rx="12" fill="white"/>
<g id="elements">
<path id="Vector" d="M42.8904 32.1654C43.3956 32.0845 43.6481 32.0441 43.7677 31.9039C43.8872 31.7637 43.8872 31.5381 43.8872 31.0868V26.97C43.8872 26.5187 43.8872 26.2931 43.7677 26.1529C43.6481 26.0127 43.3955 25.9723 42.8904 25.8914C39.249 25.3087 36.946 21.5895 38.2071 18.2486C38.3959 17.7484 38.4903 17.4983 38.426 17.3234C38.3616 17.1485 38.1585 17.0363 37.7522 16.812L33.9656 14.7211C33.5847 14.5107 33.3942 14.4056 33.2184 14.438C33.0425 14.4705 32.8827 14.6596 32.563 15.038C30.1676 17.8734 25.6313 17.8733 23.2359 15.0378C22.9162 14.6595 22.7564 14.4703 22.5806 14.4379C22.4047 14.4054 22.2143 14.5106 21.8333 14.7209L18.0467 16.8118C17.6405 17.0361 17.4374 17.1483 17.373 17.3232C17.3086 17.4981 17.403 17.7482 17.5918 18.2484C18.8526 21.5895 16.5478 25.3087 12.906 25.8914C12.4008 25.9723 12.1483 26.0127 12.0287 26.1529C11.9092 26.2931 11.9092 26.5187 11.9092 26.97V31.0868C11.9092 31.5381 11.9092 31.7637 12.0287 31.9039C12.1483 32.0441 12.4008 32.0845 12.906 32.1654C16.5474 32.7481 18.8504 36.4673 17.5893 39.8082C17.4005 40.3084 17.3061 40.5585 17.3704 40.7334C17.4348 40.9083 17.6379 41.0205 18.0442 41.2448L21.8308 43.3357C22.2117 43.546 22.4022 43.6512 22.5781 43.6188C22.7539 43.5863 22.9137 43.3971 23.2333 43.0188C25.6299 40.1815 30.169 40.1813 32.5656 43.0186C32.8852 43.397 33.045 43.5862 33.2209 43.6186C33.3967 43.6511 33.5872 43.5459 33.9681 43.3356L37.7547 41.2447C38.161 41.0203 38.3641 40.9082 38.4285 40.7332C38.4929 40.5583 38.3985 40.3082 38.2096 39.8081C36.9482 36.4672 39.2493 32.7481 42.8904 32.1654Z" fill="#FFEDED"/>
<g id="Group 48095376">
<mask id="mask0_51_431" style="mask-type:alpha" maskUnits="userSpaceOnUse" x="11" y="14" width="33" height="33">
<path id="Vector_2" d="M38.4198 18.2364C38.6047 17.7612 38.6972 17.5236 38.6358 17.3489C38.5744 17.1743 38.3786 17.0612 37.9869 16.8351L34.1724 14.6328C33.7807 14.4067 33.5848 14.2936 33.4029 14.3277C33.221 14.3619 33.0614 14.5608 32.7424 14.9585C30.3102 17.9907 25.6797 18.1243 23.3088 15.1836C22.9756 14.7703 22.809 14.5636 22.6246 14.5309C22.4402 14.4982 22.2412 14.6178 21.8433 14.857L17.8955 17.2301C17.5206 17.4555 17.3331 17.5681 17.2734 17.7381C17.2137 17.9081 17.2994 18.1401 17.4709 18.6041C18.8281 22.2759 16.4363 26.4182 12.5779 27.0788C12.0903 27.1622 11.8466 27.204 11.7292 27.3407C11.6118 27.4774 11.608 27.6961 11.6002 28.1334L11.519 32.7389C11.5108 33.2031 11.5067 33.4352 11.6273 33.5785C11.7478 33.7219 12.01 33.7628 12.5346 33.8448C16.2667 34.428 18.4654 38.5067 17.0553 42.1294C16.8704 42.6046 16.7779 42.8421 16.8393 43.0168C16.9006 43.1914 17.0965 43.3045 17.4882 43.5307L21.3027 45.733C21.6944 45.9591 21.8902 46.0722 22.0722 46.038C22.2541 46.0038 22.4136 45.805 22.7327 45.4072C25.1648 42.375 29.7953 42.2414 32.1663 45.1822C32.4995 45.5955 32.6661 45.8021 32.8505 45.8348C33.0349 45.8675 33.2338 45.7479 33.6318 45.5087L37.5796 43.1356C37.9545 42.9103 38.1419 42.7976 38.2017 42.6276C38.2614 42.4576 38.1756 42.2256 38.0041 41.7617C36.6459 38.0879 39.0388 33.9429 42.8995 33.2822C43.3871 33.1988 43.6308 33.1571 43.7482 33.0204C43.8656 32.8836 43.8695 32.665 43.8772 32.2276L43.9584 27.6222C43.9666 27.1579 43.9707 26.9258 43.8501 26.7825C43.7296 26.6391 43.4674 26.5982 42.9429 26.5163C39.2106 25.9337 37.0101 21.8585 38.4198 18.2364Z" fill="#EEFFFF"/>
</mask>
<g mask="url(#mask0_51_431)">
<path id="Vector 16" d="M22.6875 17.0323L18.0201 19.5552L15.567 13.7239L37.798 2.67807C62.3792 27.9892 44.3096 34.2503 46.3207 27.9862L41.7137 27.9862C35.7901 26.0111 34.8502 20.6619 36.2405 18.2538L33.5321 16.671C29.2888 21.2083 24.8484 19.0826 22.6875 17.0323Z" fill="#F6CCCC"/>
</g>
</g>
<path id="Vector_3" d="M31.4479 26.6344C31.8469 27.1977 32.6271 27.3309 33.1904 26.9318C33.7538 26.5328 33.887 25.7526 33.4879 25.1893L31.4479 26.6344ZM23.2601 34.1786C23.7678 34.6464 24.5586 34.6141 25.0264 34.1064C25.4942 33.5987 25.4619 32.8079 24.9542 32.3401L23.2601 34.1786ZM34.4937 14.7286L35.1079 13.6398V13.6398L34.4937 14.7286ZM37.2514 16.284L36.6372 17.3728L36.6372 17.3728L37.2514 16.284ZM21.3026 43.363L21.9168 42.2742L21.9168 42.2742L21.3026 43.363ZM18.545 41.8075L19.1591 40.7188H19.1591L18.545 41.8075ZM18.5476 16.2839L17.9334 15.1951V15.1951L18.5476 16.2839ZM21.3052 14.7284L20.6911 13.6397L21.3052 14.7284ZM17.7584 18.5632L16.549 18.8793L17.7584 18.5632ZM13.4905 25.7157L13.1671 24.5082L13.1671 24.5082L13.4905 25.7157ZM13.4905 32.3759L13.167 33.5833H13.167L13.4905 32.3759ZM17.7559 39.5282L18.9653 39.8445L17.7559 39.5282ZM23.6361 15.1922L22.7561 16.0801V16.0801L23.6361 15.1922ZM32.1628 15.1924L33.0428 16.0802L32.1628 15.1924ZM38.0405 18.5633L39.2498 18.8795V18.8795L38.0405 18.5633ZM42.3059 25.7156L42.6294 24.5082L42.3059 25.7156ZM17.5322 17.0452L16.3821 16.5555L16.3821 16.5555L17.5322 17.0452ZM22.4626 43.8308L22.2967 42.5919L22.2967 42.5919L22.4626 43.8308ZM23.6335 42.8991L22.7534 42.0113L22.7534 42.0114L23.6335 42.8991ZM12.074 26.2647L11.0841 25.5014L11.0841 25.5014L12.074 26.2647ZM42.6372 27.8617C42.6372 28.5521 43.1969 29.1117 43.8872 29.1117C44.5776 29.1117 45.1372 28.5521 45.1372 27.8617H42.6372ZM24.8254 43.5041C25.3573 43.0641 25.4318 42.2761 24.9917 41.7442C24.5517 41.2123 23.7637 41.1378 23.2318 41.5779L24.8254 43.5041ZM23.552 29.1429C23.552 26.7426 25.4979 24.7967 27.8982 24.7967V22.2967C24.1172 22.2967 21.052 25.3619 21.052 29.1429H23.552ZM27.8982 24.7967C29.3628 24.7967 30.6585 25.52 31.4479 26.6344L33.4879 25.1893C32.25 23.4416 30.2078 22.2967 27.8982 22.2967V24.7967ZM24.9542 32.3401C24.0904 31.5442 23.552 30.4073 23.552 29.1429H21.052C21.052 31.1347 21.9042 32.9293 23.2601 34.1786L24.9542 32.3401ZM13.1592 30.5815V27.51H10.6592V30.5815H13.1592ZM33.8796 15.8173L36.6372 17.3728L37.8655 15.1953L35.1079 13.6398L33.8796 15.8173ZM21.9168 42.2742L19.1591 40.7188L17.9309 42.8962L20.6885 44.4517L21.9168 42.2742ZM19.1617 17.3726L21.9193 15.8172L20.6911 13.6397L17.9334 15.1951L19.1617 17.3726ZM16.549 18.8793C17.1721 21.2634 15.6512 23.8428 13.1671 24.5082L13.814 26.9231C17.5678 25.9175 19.9535 22.0188 18.9677 18.2471L16.549 18.8793ZM13.167 33.5833C15.6501 34.2486 17.1701 36.8275 16.5466 39.212L18.9653 39.8445C19.9514 36.0732 17.5678 32.1742 13.814 31.1685L13.167 33.5833ZM22.7561 16.0801C25.5765 18.8754 30.2223 18.8755 33.0428 16.0802L31.2829 14.3046C29.437 16.134 26.362 16.134 24.516 14.3044L22.7561 16.0801ZM36.8311 18.2471C35.845 22.0183 38.2286 25.9173 41.9824 26.923L42.6294 24.5082C40.1463 23.8429 38.6263 21.264 39.2498 18.8795L36.8311 18.2471ZM21.9193 15.8172C22.0712 15.7315 22.19 15.6645 22.2929 15.609C22.3964 15.5533 22.463 15.5205 22.5079 15.501C22.608 15.4573 22.4982 15.5262 22.2992 15.4995L22.6308 13.0216C22.1647 12.9593 21.7726 13.0942 21.5084 13.2094C21.2536 13.3206 20.9651 13.4851 20.6911 13.6397L21.9193 15.8172ZM24.516 14.3044C24.2313 14.0223 23.9609 13.7527 23.7262 13.5566C23.5138 13.3791 23.1385 13.0896 22.6308 13.0216L22.2992 15.4995C22.1669 15.4818 22.0835 15.4382 22.0626 15.4265C22.0455 15.4168 22.0617 15.4236 22.1232 15.4751C22.2566 15.5866 22.4382 15.7649 22.7561 16.0801L24.516 14.3044ZM17.9334 15.1951C17.6538 15.3529 17.3597 15.517 17.1304 15.6791C16.8949 15.8456 16.5695 16.1154 16.3821 16.5555L18.6822 17.5349C18.6005 17.7268 18.4795 17.787 18.5737 17.7204C18.6151 17.6911 18.6793 17.65 18.7828 17.589C18.8857 17.5283 19.007 17.4599 19.1617 17.3726L17.9334 15.1951ZM18.9677 18.2471C18.8512 17.8013 18.7852 17.5445 18.7543 17.3661C18.7399 17.2831 18.7419 17.2639 18.7417 17.2827C18.7415 17.3053 18.7377 17.4046 18.6822 17.5349L16.3821 16.5555C16.1768 17.0376 16.2439 17.5216 16.2911 17.7935C16.3443 18.1004 16.4442 18.4785 16.549 18.8793L18.9677 18.2471ZM19.1591 40.7188C19.0044 40.6315 18.8831 40.563 18.7802 40.5023C18.6768 40.4414 18.6125 40.4002 18.5712 40.371C18.477 40.3044 18.598 40.3646 18.6797 40.5565L16.3795 41.5358C16.5668 41.9759 16.8923 42.2457 17.1278 42.4122C17.3571 42.5744 17.6512 42.7385 17.9309 42.8962L19.1591 40.7188ZM16.5466 39.212C16.4418 39.6127 16.3418 39.9908 16.2885 40.2977C16.2413 40.5696 16.1742 41.0536 16.3795 41.5358L18.6797 40.5565C18.7352 40.6868 18.7389 40.7861 18.7392 40.8086C18.7394 40.8275 18.7373 40.8083 18.7517 40.7253C18.7827 40.5469 18.8487 40.2902 18.9653 39.8445L16.5466 39.212ZM20.6885 44.4517C20.9626 44.6063 21.2511 44.7708 21.5059 44.882C21.7702 44.9972 22.1623 45.1322 22.6285 45.0697L22.2967 42.5919C22.4957 42.5652 22.6055 42.6341 22.5054 42.5904C22.4605 42.5708 22.3939 42.5381 22.2904 42.4823C22.1874 42.4269 22.0687 42.3599 21.9168 42.2742L20.6885 44.4517ZM22.7534 42.0114C22.4355 42.3265 22.254 42.5049 22.1206 42.6164C22.0591 42.6678 22.043 42.6746 22.0601 42.665C22.081 42.6532 22.1644 42.6096 22.2967 42.5919L22.6285 45.0697C23.1361 45.0018 23.5114 44.7122 23.7239 44.5346C23.9585 44.3385 24.2289 44.0689 24.5135 43.7868L22.7534 42.0114ZM36.6372 17.3728C36.792 17.46 36.9132 17.5285 37.0162 17.5892C37.1196 17.6502 37.1839 17.6913 37.2252 17.7205C37.3194 17.7871 37.1984 17.727 37.1167 17.535L39.4169 16.5558C39.2295 16.1156 38.9041 15.8458 38.6686 15.6793C38.4393 15.5171 38.1451 15.353 37.8655 15.1953L36.6372 17.3728ZM39.2498 18.8795C39.3546 18.4788 39.4546 18.1007 39.5078 17.7938C39.5551 17.5219 39.6222 17.0379 39.4169 16.5558L37.1167 17.535C37.0612 17.4047 37.0575 17.3055 37.0572 17.2829C37.057 17.264 37.0591 17.2832 37.0447 17.3662C37.0137 17.5446 36.9477 17.8013 36.8311 18.2471L39.2498 18.8795ZM35.1079 13.6398C34.8338 13.4853 34.5453 13.3207 34.2905 13.2096C34.0263 13.0943 33.6342 12.9594 33.1681 13.0218L33.4997 15.4997C33.3007 15.5263 33.1909 15.4574 33.2911 15.5011C33.336 15.5207 33.4026 15.5535 33.506 15.6092C33.609 15.6647 33.7277 15.7316 33.8796 15.8173L35.1079 13.6398ZM33.0428 16.0802C33.3607 15.7651 33.5423 15.5867 33.6757 15.4752C33.7373 15.4238 33.7534 15.417 33.7363 15.4266C33.7154 15.4383 33.6321 15.482 33.4997 15.4997L33.1681 13.0218C32.6605 13.0897 32.2852 13.3793 32.0727 13.5568C31.8381 13.7529 31.5676 14.0224 31.2829 14.3046L33.0428 16.0802ZM13.1592 27.51C13.1592 27.3345 13.1592 27.1973 13.1615 27.0797C13.1638 26.9615 13.1681 26.8872 13.1731 26.8386C13.1844 26.7293 13.1903 26.864 13.0639 27.028L11.0841 25.5014C10.7929 25.8791 10.7163 26.2926 10.6865 26.5807C10.6576 26.859 10.6592 27.1936 10.6592 27.51H13.1592ZM13.1671 24.5082C12.7724 24.614 12.3981 24.7131 12.1074 24.8179C11.8472 24.9116 11.4004 25.0912 11.0841 25.5014L13.0639 27.028C12.9799 27.1369 12.898 27.1879 12.8783 27.1994C12.862 27.2089 12.8772 27.1978 12.9549 27.1698C13.1226 27.1094 13.3742 27.0409 13.814 26.9231L13.1671 24.5082ZM10.6592 30.5815C10.6592 30.8979 10.6576 31.2325 10.6864 31.5108C10.7163 31.7989 10.7928 32.2124 11.0841 32.5901L13.0639 31.0635C13.1903 31.2275 13.1844 31.3622 13.1731 31.2529C13.1681 31.2043 13.1638 31.13 13.1615 31.0118C13.1592 30.8942 13.1592 30.757 13.1592 30.5815H10.6592ZM13.814 31.1685C13.3743 31.0507 13.1226 30.9821 12.9549 30.9217C12.8772 30.8937 12.862 30.8826 12.8783 30.8921C12.898 30.9037 12.9799 30.9546 13.0639 31.0635L11.0841 32.5901C11.4004 33.0003 11.8471 33.1798 12.1073 33.2736C12.3981 33.3784 12.7723 33.4776 13.167 33.5833L13.814 31.1685ZM45.1372 27.51C45.1372 27.1936 45.1388 26.859 45.1099 26.5807C45.0801 26.2927 45.0035 25.8792 44.7123 25.5014L42.7325 27.028C42.6061 26.864 42.6119 26.7293 42.6233 26.8386C42.6283 26.8872 42.6326 26.9615 42.6349 27.0797C42.6372 27.1973 42.6372 27.3345 42.6372 27.51H45.1372ZM41.9824 26.923C42.4221 27.0409 42.6737 27.1094 42.8414 27.1698C42.9192 27.1978 42.9344 27.2089 42.9181 27.1994C42.8984 27.1879 42.8165 27.1369 42.7325 27.028L44.7123 25.5014C44.396 25.0913 43.9493 24.9117 43.6891 24.8179C43.3983 24.7131 43.0241 24.614 42.6294 24.5082L41.9824 26.923ZM42.6372 27.51V27.8617H45.1372V27.51H42.6372ZM24.5135 43.7868C24.6141 43.687 24.7182 43.5928 24.8254 43.5041L23.2318 41.5779C23.0671 41.7141 22.9075 41.8586 22.7534 42.0113L24.5135 43.7868Z" fill="#D7124A"/>
<g id="Vector_4">
<path d="M43.8884 38.2396C43.8884 42.6549 40.3092 46.2341 35.8939 46.2341C31.4787 46.2341 27.8994 42.6549 27.8994 38.2396C27.8994 33.8244 31.4787 30.2451 35.8939 30.2451C40.3092 30.2451 43.8884 33.8244 43.8884 38.2396Z" fill="#FFEDED"/>
<path fill-rule="evenodd" clip-rule="evenodd" d="M35.9082 41.4374H35.8939H35.9082Z" fill="#FFEDED"/>
<path d="M35.8939 35.0418V38.2396M35.9082 41.4374H35.8939M43.8884 38.2396C43.8884 42.6549 40.3092 46.2341 35.8939 46.2341C31.4787 46.2341 27.8994 42.6549 27.8994 38.2396C27.8994 33.8244 31.4787 30.2451 35.8939 30.2451C40.3092 30.2451 43.8884 33.8244 43.8884 38.2396Z" stroke="#D7124A" stroke-width="2.5" stroke-linecap="round"/>
</g>
</g>
</g>
</svg>
