<svg width="56" height="56" viewBox="0 0 56 56" fill="none" xmlns="http://www.w3.org/2000/svg">
<g id="Frame 98">
<rect id="Rectangle 39342" width="56" height="56" rx="12" fill="white"/>
<g id="elements">
<path id="Vector" d="M44.9003 30.0204C45.4038 29.9443 45.6556 29.9063 45.7765 29.7657C45.8975 29.6251 45.8975 29.3987 45.8975 28.9461V24.4818C45.8975 24.0291 45.8975 23.8028 45.7765 23.6622C45.6556 23.5216 45.4038 23.4836 44.9003 23.4075C40.9994 22.8181 38.5299 18.8285 39.9158 15.2664C40.1087 14.7707 40.2051 14.5228 40.1412 14.3462C40.0772 14.1696 39.8733 14.0571 39.4656 13.832L35.3643 11.5673C34.9822 11.3563 34.7911 11.2508 34.6142 11.2842C34.4373 11.3177 34.2799 11.5073 33.9651 11.8865C31.4314 14.9392 26.5713 14.9391 24.0376 11.8864C23.7228 11.5071 23.5654 11.3175 23.3885 11.2841C23.2116 11.2507 23.0205 11.3561 22.6384 11.5671L18.5371 13.8318C18.1294 14.0569 17.9255 14.1695 17.8616 14.3461C17.7976 14.5226 17.894 14.7705 18.0869 15.2663C19.4725 18.8285 17.0011 22.8181 13.0997 23.4075C12.5962 23.4836 12.3445 23.5216 12.2235 23.6622C12.1025 23.8028 12.1025 24.0291 12.1025 24.4818V28.9461C12.1025 29.3987 12.1025 29.6251 12.2235 29.7657C12.3445 29.9063 12.5962 29.9443 13.0997 30.0204C17.0007 30.6098 19.4702 34.5993 18.0842 38.1614C17.8913 38.6572 17.7949 38.905 17.8589 39.0816C17.9229 39.2582 18.1267 39.3708 18.5344 39.5959L22.6358 41.8606C23.0179 42.0716 23.2089 42.1771 23.3858 42.1436C23.5628 42.1102 23.7201 41.9206 24.0349 41.5413C26.5698 38.4867 31.4329 38.4866 33.9678 41.5411C34.2826 41.9204 34.44 42.11 34.6169 42.1435C34.7938 42.1769 34.9849 42.0714 35.367 41.8604L39.4683 39.5958C39.876 39.3706 40.0799 39.258 40.1439 39.0814C40.2078 38.9048 40.1114 38.657 39.9185 38.1613C38.5322 34.5993 40.9998 30.6098 44.9003 30.0204Z" fill="#EEFFFF"/>
<g id="Group 48095376">
<mask id="mask0_51_494" style="mask-type:alpha" maskUnits="userSpaceOnUse" x="11" y="10" width="36" height="33">
<path id="Vector_2" d="M45.268 30.1694C45.7703 30.0965 46.0214 30.0601 46.1434 29.9192C46.2653 29.7783 46.2653 29.5516 46.2653 29.098V24.3295C46.2653 23.8759 46.2653 23.6491 46.1434 23.5083C46.0214 23.3674 45.7703 23.331 45.268 23.2581C41.155 22.6616 38.55 18.4346 40.0423 14.6797C40.2374 14.1888 40.335 13.9433 40.2715 13.7657C40.208 13.588 40.0042 13.4752 39.5967 13.2494L35.2393 10.835C34.8556 10.6224 34.6637 10.5161 34.4856 10.5504C34.3075 10.5846 34.1518 10.7753 33.8405 11.1565C31.1953 14.3956 26.0737 14.3954 23.4286 11.1564C23.1172 10.7751 22.9615 10.5845 22.7834 10.5502C22.6053 10.516 22.4134 10.6223 22.0297 10.8349L17.6723 13.2492C17.2648 13.475 17.0611 13.5879 16.9976 13.7655C16.9341 13.9431 17.0316 14.1886 17.2267 14.6795C18.7187 18.4345 16.1116 22.6616 11.9983 23.2581C11.496 23.331 11.2448 23.3674 11.1229 23.5083C11.001 23.6491 11.001 23.8759 11.001 24.3295V29.098C11.001 29.5516 11.001 29.7783 11.1229 29.9192C11.2448 30.0601 11.496 30.0965 11.9983 30.1694C16.1113 30.7659 18.7162 34.9929 17.2239 38.7478C17.0288 39.2387 16.9313 39.4842 16.9948 39.6618C17.0583 39.8394 17.262 39.9523 17.6695 40.1781L22.027 42.5925C22.4107 42.8051 22.6025 42.9114 22.7806 42.8771C22.9588 42.8428 23.1144 42.6522 23.4257 42.2709C26.0722 39.0298 31.1968 39.0297 33.8433 42.2708C34.1546 42.652 34.3103 42.8427 34.4884 42.8769C34.6665 42.9112 34.8584 42.8049 35.2421 42.5923L39.5995 40.178C40.007 39.9522 40.2108 39.8393 40.2743 39.6616C40.3378 39.484 40.2402 39.2385 40.0451 38.7476C38.5525 34.9928 41.1554 30.7659 45.268 30.1694Z" fill="#EEFFFF"/>
</mask>
<g mask="url(#mask0_51_494)">
<path id="Vector 16" d="M37.9999 15.143L33.2246 12.2043L37.2653 6.87793L59.1219 21.3877C48.9453 57.2599 26.2453 42.6932 33.041 41.2239L37.6327 39.0199C36.3103 32.5548 41.1224 28.5508 44.061 28.5508V24.8774C37.4489 24.4366 37.2653 18.2041 37.9999 15.143Z" fill="#C8E8E8"/>
</g>
</g>
<g id="Vector_3">
<path d="M34.5506 32.1418C33.1987 33.4934 30.7357 33.5359 27.0184 33.5354C26.6091 33.5354 26.4045 33.5354 26.2206 33.6115C26.0368 33.6876 25.8924 33.8321 25.6035 34.121L16.8857 42.84C15.5393 44.1865 13.3563 44.1865 12.0098 42.84C10.6634 41.4936 10.6634 39.3106 12.0098 37.9641L20.729 29.2445C21.0178 28.9556 21.1623 28.8112 21.2384 28.6274C21.3145 28.4436 21.3145 28.239 21.3144 27.8297V27.8297C21.314 24.1148 21.3565 21.6506 22.7083 20.299C24.1582 18.8493 24.7986 18.908 31.2215 18.908C31.8422 18.9054 32.1546 19.656 31.7158 20.0949L28.4087 23.4022C27.5693 24.2417 27.567 25.6027 28.4065 26.4421C29.246 27.2815 30.6071 27.2816 31.4468 26.4423L34.7547 23.1358C35.1937 22.697 35.9445 23.0094 35.9418 23.63C35.9418 30.0519 36.0005 30.6921 34.5506 32.1418Z" fill="#EEFFFF"/>
<path d="M27.0184 33.5354L27.0185 32.5354H27.0185L27.0184 33.5354ZM34.5506 32.1418L35.2576 32.849L35.2576 32.849L34.5506 32.1418ZM35.9418 23.63L34.9418 23.6257V23.63H35.9418ZM34.7547 23.1358L35.4617 23.8431V23.8431L34.7547 23.1358ZM31.4468 26.4423L30.7398 25.7351V25.7351L31.4468 26.4423ZM28.4065 26.4421L27.6994 27.1493L27.6994 27.1493L28.4065 26.4421ZM21.3144 27.8297H22.3144V27.8296L21.3144 27.8297ZM22.7083 20.299L22.0012 19.5919V19.5919L22.7083 20.299ZM31.2215 18.908V19.9081L31.2258 19.908L31.2215 18.908ZM31.7158 20.0949L32.4229 20.802L32.4229 20.802L31.7158 20.0949ZM28.4087 23.4022L27.7016 22.6952L27.7016 22.6952L28.4087 23.4022ZM12.0098 42.84L11.3027 43.5471L12.0098 42.84ZM12.0098 37.9641L12.7169 38.6712L12.717 38.6712L12.0098 37.9641ZM16.8857 42.84L17.5928 43.5471L17.5929 43.5471L16.8857 42.84ZM25.6035 34.121L26.3107 34.8281L25.6035 34.121ZM20.729 29.2445L20.0218 28.5374L20.0218 28.5374L20.729 29.2445ZM21.3144 27.8297H20.3144V27.8299L21.3144 27.8297ZM21.2384 28.6274L20.3145 28.2448L20.3145 28.2448L21.2384 28.6274ZM26.2206 33.6115L25.838 32.6876H25.838L26.2206 33.6115ZM27.0183 34.5354C28.8583 34.5356 30.4797 34.5271 31.8138 34.3355C33.1539 34.1429 34.3596 33.7468 35.2576 32.849L33.8435 31.4346C33.3896 31.8884 32.688 32.1893 31.5293 32.3558C30.3646 32.5231 28.8959 32.5356 27.0185 32.5354L27.0183 34.5354ZM35.2576 32.849C35.6441 32.4625 35.9913 32.0709 36.2578 31.5817C36.5285 31.0847 36.6846 30.5462 36.7795 29.8945C36.9595 28.6578 36.9418 26.788 36.9418 23.63H34.9418C34.9418 26.8938 34.9534 28.5551 34.8003 29.6064C34.7286 30.0987 34.6276 30.3934 34.5014 30.625C34.3712 30.8642 34.182 31.0962 33.8435 31.4346L35.2576 32.849ZM36.9418 23.6343C36.9483 22.1188 35.1168 21.3599 34.0477 22.4285L35.4617 23.8431C35.2705 24.0341 34.9406 23.8999 34.9418 23.6257L36.9418 23.6343ZM34.0477 22.4285L30.7398 25.7351L32.1537 27.1496L35.4617 23.8431L34.0477 22.4285ZM30.7398 25.7351C30.2907 26.184 29.5626 26.1839 29.1135 25.7349L27.6994 27.1493C28.9294 28.3791 30.9235 28.3792 32.1537 27.1496L30.7398 25.7351ZM22.3144 27.8296C22.3142 25.9535 22.3267 24.485 22.4941 23.3204C22.6606 22.1617 22.9616 21.4599 23.4153 21.0062L22.0012 19.5919C21.1032 20.4897 20.707 21.6958 20.5144 23.0359C20.3227 24.3699 20.3142 25.991 20.3144 27.8299L22.3144 27.8296ZM23.4153 21.0062C23.7538 20.6678 23.9859 20.4786 24.2251 20.3483C24.4567 20.2222 24.7516 20.1212 25.244 20.0495C26.2955 19.8964 27.9571 19.908 31.2215 19.908V17.908C28.063 17.908 26.1929 17.8903 24.956 18.0703C24.3042 18.1652 23.7657 18.3213 23.2687 18.5919C22.7794 18.8583 22.3877 19.2054 22.0012 19.5919L23.4153 21.0062ZM31.2258 19.908C30.9523 19.9092 30.817 19.5795 31.0086 19.3879L32.4229 20.802C33.4922 19.7326 32.7321 17.9016 31.2172 17.9081L31.2258 19.908ZM31.0086 19.3878L27.7016 22.6952L29.1158 24.1093L32.4229 20.802L31.0086 19.3878ZM27.7016 22.6952C26.4731 23.9238 26.4679 25.9179 27.6994 27.1493L29.1135 25.7349C28.666 25.2875 28.6655 24.5597 29.1158 24.1093L27.7016 22.6952ZM12.7169 42.1329C11.761 41.177 11.761 39.6271 12.7169 38.6712L11.3027 37.257C9.56576 38.994 9.56576 41.8102 11.3027 43.5471L12.7169 42.1329ZM16.1786 42.1329C15.2227 43.0888 13.6729 43.0888 12.7169 42.1329L11.3027 43.5471C13.0397 45.2841 15.8559 45.2841 17.5928 43.5471L16.1786 42.1329ZM24.8963 33.414L16.1786 42.133L17.5929 43.5471L26.3107 34.8281L24.8963 33.414ZM12.717 38.6712L21.4361 29.9516L20.0218 28.5374L11.3027 37.257L12.717 38.6712ZM20.3144 27.8297V27.8297H22.3144V27.8297H20.3144ZM20.3144 27.8299C20.3144 28.0491 20.3138 28.1587 20.3078 28.2375C20.3031 28.2998 20.2984 28.2835 20.3145 28.2448L22.1623 29.01C22.3322 28.5996 22.3145 28.1571 22.3144 27.8296L20.3144 27.8299ZM21.4361 29.9516C21.6673 29.7203 21.9924 29.4203 22.1623 29.01L20.3145 28.2448C20.3305 28.2061 20.3452 28.198 20.3047 28.2451C20.2534 28.3049 20.1766 28.3826 20.0218 28.5374L21.4361 29.9516ZM27.0185 32.5354C26.691 32.5354 26.2484 32.5176 25.838 32.6876L26.6033 34.5354C26.5645 34.5514 26.5483 34.5468 26.6106 34.542C26.6894 34.536 26.799 34.5354 27.0183 34.5354L27.0185 32.5354ZM26.3107 34.8281C26.4655 34.6732 26.5432 34.5964 26.603 34.5451C26.6501 34.5046 26.642 34.5194 26.6033 34.5354L25.838 32.6876C25.4276 32.8576 25.1276 33.1827 24.8963 33.414L26.3107 34.8281Z" fill="#17C1C1"/>
</g>
<path id="Vector_4" d="M22.9911 43.8499C25.4308 39.6943 31.2065 39.4236 34.0811 43.0373C34.3927 43.429 34.5485 43.6248 34.7298 43.6599C34.9111 43.695 35.1058 43.5845 35.4952 43.3634L39.9274 40.8469C40.326 40.6206 40.5254 40.5075 40.5874 40.3309C40.6495 40.1543 40.5542 39.9145 40.3636 39.4349C38.8124 35.5315 41.455 31.1159 45.6347 30.5015C46.1373 30.4276 46.3886 30.3907 46.5102 30.2499C46.6318 30.1091 46.6318 29.8824 46.6318 29.4291V24.4211C46.6318 23.9678 46.6318 23.7411 46.5102 23.6003C46.3886 23.4595 46.1373 23.4226 45.6347 23.3487C41.4546 22.7344 38.8099 18.3186 40.3608 14.4151C40.5514 13.9355 40.6467 13.6957 40.5846 13.5191C40.5225 13.3426 40.3232 13.2294 39.9246 13.0031L35.4924 10.4866C35.103 10.2656 34.9083 10.155 34.727 10.1901C34.5457 10.2252 34.3899 10.421 34.0783 10.8127C31.4054 14.1723 26.2238 14.1724 23.5509 10.8129C23.2393 10.4212 23.0835 10.2254 22.9022 10.1903C22.7209 10.1552 22.5262 10.2657 22.1368 10.4868L17.7046 13.0033C17.306 13.2296 17.1067 13.3428 17.0446 13.5193C16.9825 13.6959 17.0778 13.9357 17.2684 14.4153C18.8196 18.3187 16.1771 22.7343 11.9973 23.3487C11.4947 23.4226 11.2434 23.4595 11.1218 23.6003C11.0002 23.7411 11.0002 23.9678 11.0002 24.4211V29.4291C11.0002 29.8825 11.0002 30.1091 11.1218 30.2499C11.2435 30.3907 11.4946 30.4276 11.9967 30.5014C12.2694 30.5415 12.5355 30.5977 12.7943 30.6689" stroke="#17C1C1" stroke-width="2" stroke-linecap="round"/>
</g>
</g>
</svg>
