<svg  viewBox="0 0 36 36" fill="none" xmlns="http://www.w3.org/2000/svg">
<g id="Frame" clip-path="url(#clip0_51_535)">
<path id="Vector" d="M17.9984 35.0857C27.4403 35.0857 35.0945 31.9735 35.0945 28.1344C35.0945 24.2953 27.4403 21.1831 17.9984 21.1831C8.55652 21.1831 0.902344 24.2953 0.902344 28.1344C0.902344 31.9735 8.55652 35.0857 17.9984 35.0857Z" fill="#EBF5FF"/>
<path id="Vector (Stroke)" fill-rule="evenodd" clip-rule="evenodd" d="M2.86751 25.9407C2.11487 26.6642 1.80529 27.3547 1.80529 27.9833C1.80529 28.6119 2.11487 29.3023 2.86751 30.0259C3.62218 30.7514 4.76247 31.4468 6.24622 32.0501C9.2088 33.2547 13.3635 34.0203 17.9987 34.0203C22.6339 34.0203 26.7886 33.2547 29.7512 32.0501C31.2349 31.4468 32.3752 30.7514 33.1299 30.0259C33.8825 29.3023 34.1921 28.6119 34.1921 27.9833C34.1921 27.3547 33.8825 26.6642 33.1299 25.9407C32.3752 25.2152 31.2349 24.5198 29.7512 23.9165C26.7886 22.7119 22.6339 21.9463 17.9987 21.9463C13.3635 21.9463 9.2088 22.7119 6.24622 23.9165C4.76247 24.5198 3.62218 25.2152 2.86751 25.9407ZM5.57371 22.2195C8.79869 20.9082 13.192 20.1177 17.9987 20.1177C22.8054 20.1177 27.1987 20.9082 30.4237 22.2195C32.0337 22.8741 33.3971 23.6765 34.3727 24.6143C35.3502 25.5541 35.9974 26.6923 35.9974 27.9833C35.9974 29.2742 35.3502 30.4125 34.3727 31.3522C33.3971 32.29 32.0337 33.0925 30.4237 33.7471C27.1987 35.0584 22.8054 35.8489 17.9987 35.8489C13.192 35.8489 8.79869 35.0584 5.57371 33.7471C3.96368 33.0925 2.60031 32.29 1.62477 31.3522C0.64719 30.4125 0 29.2742 0 27.9833C0 26.6923 0.64719 25.5541 1.62477 24.6143C2.60031 23.6765 3.96368 22.8741 5.57371 22.2195Z" fill="#1B85E6"/>
<path id="Vector_2" opacity="0.51" d="M17.9986 31.1307C23.7315 31.1307 28.379 29.7026 28.379 27.9411C28.379 26.1795 23.7315 24.7515 17.9986 24.7515C12.2656 24.7515 7.61816 26.1795 7.61816 27.9411C7.61816 29.7026 12.2656 31.1307 17.9986 31.1307Z" fill="#92BFEF"/>
<path id="Vector_3" d="M17.9985 0.914062C12.5568 0.914062 8.1416 5.3837 8.1416 10.8982C8.1416 15.7075 15.6413 25.2815 17.5575 27.6509C17.787 27.933 18.2125 27.933 18.4395 27.6509C20.3557 25.2815 27.8553 15.7075 27.8553 10.8982C27.8553 5.3837 23.4427 0.914062 17.9985 0.914062ZM17.9985 15.0675C15.9456 15.0675 14.2822 13.3825 14.2822 11.3032C14.2822 9.22377 15.9456 7.53622 17.9985 7.53622C20.0513 7.53622 21.7174 9.22377 21.7174 11.3032C21.7174 13.3825 20.0513 15.0675 17.9985 15.0675Z" fill="#EBF5FF"/>
<path id="Vector (Stroke)_2" fill-rule="evenodd" clip-rule="evenodd" d="M7.23926 10.8985C7.23926 4.87882 12.0588 0 17.9988 0C23.9415 0 28.7583 4.87898 28.7583 10.8985C28.7583 12.304 28.2213 13.9515 27.4736 15.5945C26.7154 17.2608 25.6927 19.0234 24.6228 20.6885C22.4824 24.0197 20.1051 27.0347 19.1386 28.2299C18.5481 28.9623 17.4494 28.9556 16.8612 28.2326L16.8595 28.2305C15.8932 27.0357 13.5155 24.0202 11.3747 20.6885C10.3049 19.0234 9.28215 17.2608 8.52391 15.5945C7.77627 13.9515 7.23926 12.304 7.23926 10.8985ZM17.9988 1.8286C13.0555 1.8286 9.04454 5.88905 9.04454 10.8985C9.04454 11.8976 9.445 13.2503 10.1634 14.8291C10.8713 16.3846 11.8432 18.0653 12.8878 19.691C14.8067 22.6776 16.93 25.4161 17.9988 26.7519C19.0675 25.4161 21.1908 22.6776 23.1097 19.691C24.1543 18.0653 25.1263 16.3846 25.8341 14.8291C26.5525 13.2503 26.953 11.8976 26.953 10.8985C26.953 5.88889 22.9445 1.8286 17.9988 1.8286ZM17.74 27.0736C17.7405 27.073 17.741 27.0723 17.7415 27.0717L17.74 27.0736ZM17.9988 8.45077C16.4452 8.45077 15.1851 9.72813 15.1851 11.3034C15.1851 12.8778 16.4444 14.1534 17.9988 14.1534C19.5539 14.1534 20.815 12.877 20.815 11.3034C20.815 9.72896 19.5531 8.45077 17.9988 8.45077ZM13.3798 11.3034C13.3798 8.71988 15.4466 6.62216 17.9988 6.62216C20.5502 6.62216 22.6203 8.71905 22.6203 11.3034C22.6203 13.8886 20.5493 15.982 17.9988 15.982C15.4474 15.982 13.3798 13.8877 13.3798 11.3034Z" fill="#1B85E6"/>
<path id="Vector_4" opacity="0.51" d="M19.2804 1.72949C19.2804 1.72949 32.6428 5.41306 17.4706 26.4707C16.9426 30.27 27.3165 13.5684 27.3165 13.5684L27.5203 6.87048L21.9136 1.73472L19.2804 1.72949Z" fill="#92BFEF"/>
<path id="Vector (Stroke)_3" fill-rule="evenodd" clip-rule="evenodd" d="M7.23926 10.8985C7.23926 4.87882 12.0588 0 17.9988 0C23.9415 0 28.7583 4.87898 28.7583 10.8985C28.7583 12.304 28.2213 13.9515 27.4736 15.5945C26.7154 17.2608 25.6927 19.0234 24.6228 20.6885C22.4824 24.0197 20.1051 27.0347 19.1386 28.2299C18.5481 28.9623 17.4494 28.9556 16.8612 28.2326L16.8595 28.2305C15.8932 27.0357 13.5155 24.0202 11.3747 20.6885C10.3049 19.0234 9.28215 17.2608 8.52391 15.5945C7.77627 13.9515 7.23926 12.304 7.23926 10.8985ZM17.9988 1.8286C13.0555 1.8286 9.04454 5.88905 9.04454 10.8985C9.04454 11.8976 9.445 13.2503 10.1634 14.8291C10.8713 16.3846 11.8432 18.0653 12.8878 19.691C14.8067 22.6776 16.93 25.4161 17.9988 26.7519C19.0675 25.4161 21.1908 22.6776 23.1097 19.691C24.1543 18.0653 25.1263 16.3846 25.8341 14.8291C26.5525 13.2503 26.953 11.8976 26.953 10.8985C26.953 5.88889 22.9445 1.8286 17.9988 1.8286ZM17.74 27.0736C17.7405 27.073 17.741 27.0723 17.7415 27.0717L17.74 27.0736ZM17.9988 8.45077C16.4452 8.45077 15.1851 9.72813 15.1851 11.3034C15.1851 12.8778 16.4444 14.1534 17.9988 14.1534C19.5539 14.1534 20.815 12.877 20.815 11.3034C20.815 9.72896 19.5531 8.45077 17.9988 8.45077ZM13.3798 11.3034C13.3798 8.71988 15.4466 6.62216 17.9988 6.62216C20.5502 6.62216 22.6203 8.71905 22.6203 11.3034C22.6203 13.8886 20.5493 15.982 17.9988 15.982C15.4474 15.982 13.3798 13.8877 13.3798 11.3034Z" fill="#1B85E6"/>
</g>
<defs>
<clipPath id="clip0_51_535">
<rect width="36" height="36" fill="white"/>
</clipPath>
</defs>
</svg>
